<svg width="1440" height="900" viewBox="0 0 1440 900" fill="none" xmlns="http://www.w3.org/2000/svg">
<g clip-path="url(#clip0)">
<rect width="1440" height="900" fill="url(#paint0_linear)" style="mix-blend-mode:multiply"/>
<path fill-rule="evenodd" clip-rule="evenodd" d="M538.022 1315.95L521.799 1304.4C505.576 1292.85 472.774 1271.02 427.889 1256.3C383.833 1241.02 326.981 1235.39 300.34 1208.38C274.173 1182.07 277.387 1134.95 310.457 1067.7C343.17 1001.72 406.095 914.361 397.699 875.057C388.947 837.015 308.401 846.326 263.516 831.609C219.104 817.595 210.708 778.291 214.396 731.867C216.781 685.299 232.435 629.79 217.878 595.659C202.847 560.825 157.962 546.108 131.795 519.801C105.154 492.79 95.9285 454.045 88.0061 415.444C78.7807 376.699 70.029 338.657 7.72815 335.675C-54.5727 332.692 -171.134 367.293 -228.822 383.684L-287.34 400.633L-323 424.661L-312.582 440.122C-302.164 455.583 -281.802 485.802 -260.967 516.724C-240.131 547.646 -219.769 577.865 -198.934 608.787C-178.572 639.007 -157.736 669.929 -136.9 700.851C-116.538 731.07 -95.7028 761.992 -74.8672 792.914C-54.5052 823.133 -33.6696 854.055 -12.834 884.977C7.52801 915.196 28.3636 946.118 48.7256 976.337C69.5612 1007.26 90.3968 1038.18 110.759 1068.4C131.594 1099.32 152.43 1130.24 172.792 1160.46C193.628 1191.39 214.463 1222.31 234.825 1252.53C255.661 1283.45 276.023 1313.67 296.858 1344.59C317.694 1375.51 338.056 1405.73 348.474 1421.19L358.892 1436.65L538.022 1315.95Z" fill="white"/>
<path fill-rule="evenodd" clip-rule="evenodd" d="M1347.59 945.838L1372.96 869.375C1396.02 794.06 1444.45 642.283 1361.2 555.986C1277.95 469.688 1060.7 450.02 1042.13 331.557C1023.57 213.094 1205.99 -5.31252 1222.08 -141.007C1238.16 -276.702 1087.91 -329.685 935.355 -381.519C785.107 -434.502 634.858 -487.485 558.579 -513.402L484.61 -540.468L1082.95 -838L1108.41 -786.81C1133.86 -735.62 1184.77 -633.24 1235.68 -530.859C1286.59 -428.479 1337.5 -326.099 1388.41 -223.719C1439.32 -121.339 1490.23 -18.9584 1541.14 83.4219C1592.05 185.802 1642.96 288.182 1693.87 390.562C1744.78 492.943 1795.69 595.323 1821.14 646.513L1846.6 697.703L1347.59 945.838Z" fill="white"/>
</g>
<defs>
<linearGradient id="paint0_linear" x1="1434.5" y1="5.50002" x2="25" y2="890" gradientUnits="userSpaceOnUse">
<stop stop-color="#D656E1" stop-opacity="0.56"/>
<stop offset="0.244792" stop-color="#F2D0E9" stop-opacity="0.604167"/>
<stop offset="0.515625" stop-color="#D9297B" stop-opacity="0.34375"/>
<stop offset="0.796875" stop-color="#F299B9" stop-opacity="0.791667"/>
<stop offset="1" stop-color="#D9296A" stop-opacity="0.39"/>
</linearGradient>
<clipPath id="clip0">
<rect width="1440" height="900" fill="white"/>
</clipPath>
</defs>
</svg>
